# Blender 3.6.2
# www.blender.org
mtllib lights.mtl
g Plane.002_Plane.001
v -16.410616 67.098610 99.099899
v 22.729380 67.098610 99.099899
v -16.410616 67.098610 93.659897
v 22.729380 67.098610 93.659897
vn -0.0000 1.0000 -0.0000
vt 0.000000 0.000000
vt 1.000000 0.000000
vt 1.000000 1.000000
vt 0.000000 1.000000
s 0
g Plane.002_WhiteLight
usemtl WhiteLight
f 1/1/1 2/2/1 4/3/1 3/4/1
g Plane.003_Plane.002
v -140.042862 67.098610 99.099907
v -100.902863 67.098610 99.099907
v -140.042862 67.098610 93.659904
v -100.902863 67.098610 93.659904
vn -0.0000 1.0000 -0.0000
vt 0.000000 0.000000
vt 1.000000 0.000000
vt 1.000000 1.000000
vt 0.000000 1.000000
s 0
g Plane.003_WhiteLight
usemtl WhiteLight
f 5/5/2 6/6/2 8/7/2 7/8/2
g Plane.004_Plane.003
v 108.395355 67.098610 99.099907
v 147.535355 67.098610 99.099907
v 108.395355 67.098610 93.659904
v 147.535355 67.098610 93.659904
vn -0.0000 1.0000 -0.0000
vt 0.000000 0.000000
vt 1.000000 0.000000
vt 1.000000 1.000000
vt 0.000000 1.000000
s 0
g Plane.004_WhiteLight
usemtl WhiteLight
f 9/9/3 10/10/3 12/11/3 11/12/3
g Plane.005_Plane.004
v 232.027603 67.098610 99.099907
v 271.167603 67.098610 99.099907
v 232.027603 67.098610 93.659904
v 271.167603 67.098610 93.659904
vn -0.0000 1.0000 -0.0000
vt 0.000000 0.000000
vt 1.000000 0.000000
vt 1.000000 1.000000
vt 0.000000 1.000000
s 0
g Plane.005_WhiteLight
usemtl WhiteLight
f 13/13/4 14/14/4 16/15/4 15/16/4
g Plane.006_Plane.005
v -265.240112 67.098610 99.099907
v -226.100113 67.098610 99.099907
v -265.240112 67.098610 93.659904
v -226.100113 67.098610 93.659904
vn -0.0000 1.0000 -0.0000
vt 0.000000 0.000000
vt 1.000000 0.000000
vt 1.000000 1.000000
vt 0.000000 1.000000
s 0
g Plane.006_WhiteLight
usemtl WhiteLight
f 17/17/5 18/18/5 20/19/5 19/20/5
g Plane.007_Plane.006
v -388.872345 67.098610 99.099907
v -349.732330 67.098610 99.099907
v -388.872345 67.098610 93.659904
v -349.732330 67.098610 93.659904
vn -0.0000 1.0000 -0.0000
vt 0.000000 0.000000
vt 1.000000 0.000000
vt 1.000000 1.000000
vt 0.000000 1.000000
s 0
g Plane.007_WhiteLight
usemtl WhiteLight
f 21/21/6 22/22/6 24/23/6 23/24/6
g Plane.008_Plane.007
v -512.592224 67.098610 99.099907
v -473.452240 67.098610 99.099907
v -512.592224 67.098610 93.659904
v -473.452240 67.098610 93.659904
vn -0.0000 1.0000 -0.0000
vt 0.000000 0.000000
vt 1.000000 0.000000
vt 1.000000 1.000000
vt 0.000000 1.000000
s 0
g Plane.008_WhiteLight
usemtl WhiteLight
f 25/25/7 26/26/7 28/27/7 27/28/7
g Plane.009_Plane.008
v 356.869080 67.098610 99.099907
v 396.009094 67.098610 99.099907
v 356.869080 67.098610 93.659904
v 396.009094 67.098610 93.659904
vn -0.0000 1.0000 -0.0000
vt 0.000000 0.000000
vt 1.000000 0.000000
vt 1.000000 1.000000
vt 0.000000 1.000000
s 0
g Plane.009_WhiteLight
usemtl WhiteLight
f 29/29/8 30/30/8 32/31/8 31/32/8
g Plane.001_Plane.009
v -16.265965 67.098610 -245.888718
v 22.874031 67.098610 -245.888718
v -16.265965 67.098610 -251.328720
v 22.874031 67.098610 -251.328720
vn -0.0000 1.0000 -0.0000
vt 0.000000 0.000000
vt 1.000000 0.000000
vt 1.000000 1.000000
vt 0.000000 1.000000
s 0
g Plane.001_WhiteLight
usemtl WhiteLight
f 33/33/9 34/34/9 36/35/9 35/36/9
g Plane.010_Plane.010
v 357.498535 67.098610 -245.888718
v 396.638550 67.098610 -245.888718
v 357.498535 67.098610 -251.328720
v 396.638550 67.098610 -251.328720
vn -0.0000 1.0000 -0.0000
vt 0.000000 0.000000
vt 1.000000 0.000000
vt 1.000000 1.000000
vt 0.000000 1.000000
s 0
g Plane.010_WhiteLight
usemtl WhiteLight
f 37/37/10 38/38/10 40/39/10 39/40/10
g Plane.012_Plane.012
v 232.107422 67.098610 -245.888718
v 271.247406 67.098610 -245.888718
v 232.107422 67.098610 -251.328720
v 271.247406 67.098610 -251.328720
vn -0.0000 1.0000 -0.0000
vt 0.000000 0.000000
vt 1.000000 0.000000
vt 1.000000 1.000000
vt 0.000000 1.000000
s 0
g Plane.012_WhiteLight
usemtl WhiteLight
f 41/41/11 42/42/11 44/43/11 43/44/11
g Plane.013_Plane.013
v 107.888397 67.098610 -245.888718
v 147.028381 67.098610 -245.888718
v 107.888397 67.098610 -251.328720
v 147.028381 67.098610 -251.328720
vn -0.0000 1.0000 -0.0000
vt 0.000000 0.000000
vt 1.000000 0.000000
vt 1.000000 1.000000
vt 0.000000 1.000000
s 0
g Plane.013_WhiteLight
usemtl WhiteLight
f 45/45/12 46/46/12 48/47/12 47/48/12
g Plane.014_Plane.014
v -140.875671 67.098610 -245.888718
v -101.735687 67.098610 -245.888718
v -140.875671 67.098610 -251.328720
v -101.735687 67.098610 -251.328720
vn -0.0000 1.0000 -0.0000
vt 0.000000 0.000000
vt 1.000000 0.000000
vt 1.000000 1.000000
vt 0.000000 1.000000
s 0
g Plane.014_WhiteLight
usemtl WhiteLight
f 49/49/13 50/50/13 52/51/13 51/52/13
g Plane.015_Plane.015
v -514.184753 67.098610 -245.888718
v -475.044769 67.098610 -245.888718
v -514.184753 67.098610 -251.328720
v -475.044769 67.098610 -251.328720
vn -0.0000 1.0000 -0.0000
vt 0.000000 0.000000
vt 1.000000 0.000000
vt 1.000000 1.000000
vt 0.000000 1.000000
s 0
g Plane.015_WhiteLight
usemtl WhiteLight
f 53/53/14 54/54/14 56/55/14 55/56/14
g Plane.016_Plane.016
v -389.965790 67.098610 -245.888718
v -350.825775 67.098610 -245.888718
v -389.965790 67.098610 -251.328720
v -350.825775 67.098610 -251.328720
vn -0.0000 1.0000 -0.0000
vt 0.000000 0.000000
vt 1.000000 0.000000
vt 1.000000 1.000000
vt 0.000000 1.000000
s 0
g Plane.016_WhiteLight
usemtl WhiteLight
f 57/57/15 58/58/15 60/59/15 59/60/15
g Plane.017_Plane.017
v -265.746765 67.098610 -245.888718
v -226.606781 67.098610 -245.888718
v -265.746765 67.098610 -251.328720
v -226.606781 67.098610 -251.328720
vn -0.0000 1.0000 -0.0000
vt 0.000000 0.000000
vt 1.000000 0.000000
vt 1.000000 1.000000
vt 0.000000 1.000000
s 0
g Plane.017_WhiteLight
usemtl WhiteLight
f 61/61/16 62/62/16 64/63/16 63/64/16
g WallLight.001_Plane.018
v -297.474121 10.721548 140.327652
v -247.474121 10.721552 140.327652
v -297.474121 60.721550 140.327652
v -247.474121 60.721550 140.327652
vn -0.0000 -0.0000 1.0000
vt 0.000000 0.000000
vt 1.000000 0.000000
vt 1.000000 1.000000
vt 0.000000 1.000000
s 0
g WallLight.001_WallLight1
usemtl WallLight1
f 65/65/17 66/66/17 68/67/17 67/68/17
g WallLight.002_Plane.019
v -603.393677 10.721548 140.327652
v -553.393677 10.721552 140.327652
v -603.393677 60.721550 140.327652
v -553.393677 60.721550 140.327652
vn -0.0000 -0.0000 1.0000
vt 0.000000 0.000000
vt 1.000000 0.000000
vt 1.000000 1.000000
vt 0.000000 1.000000
s 0
g WallLight.002_WallLight2
usemtl WallLight2
f 69/69/18 70/70/18 72/71/18 71/72/18
g WallLight.003_Plane.020
v -867.159363 10.721548 140.327652
v -817.159363 10.721552 140.327652
v -867.159363 60.721550 140.327652
v -817.159363 60.721550 140.327652
vn -0.0000 -0.0000 1.0000
vt 0.000000 0.000000
vt 1.000000 0.000000
vt 1.000000 1.000000
vt 0.000000 1.000000
s 0
g WallLight.003_WallLight3
usemtl WallLight3
f 73/73/19 74/74/19 76/75/19 75/76/19
g WallLight_Plane
v -28.044258 10.721548 140.327652
v 21.955742 10.721552 140.327652
v -28.044262 60.721550 140.327652
v 21.955738 60.721550 140.327652
vn -0.0000 -0.0000 1.0000
vt 0.000000 0.000000
vt 1.000000 0.000000
vt 1.000000 1.000000
vt 0.000000 1.000000
s 0
g WallLight_WallLight
usemtl WallLight
f 77/77/20 78/78/20 80/79/20 79/80/20
g WallLight.004_Plane.021
v 251.675018 10.721548 140.327652
v 301.675018 10.721552 140.327652
v 251.675018 60.721550 140.327652
v 301.675018 60.721550 140.327652
vn -0.0000 -0.0000 1.0000
vt 0.000000 0.000000
vt 1.000000 0.000000
vt 1.000000 1.000000
vt 0.000000 1.000000
s 0
g WallLight.004_WallLight4
usemtl WallLight4
f 81/81/21 82/82/21 84/83/21 83/84/21
g WallLight.006_Plane.023
v -817.159363 10.721548 -292.308014
v -867.159363 10.721552 -292.308014
v -817.159363 60.721550 -292.308014
v -867.159363 60.721550 -292.308014
vn -0.0000 -0.0000 -1.0000
vt 0.000000 0.000000
vt 1.000000 0.000000
vt 1.000000 1.000000
vt 0.000000 1.000000
s 0
g WallLight.006_WallLight3
usemtl WallLight3
f 85/85/22 86/86/22 88/87/22 87/88/22
g WallLight.007_Plane.024
v -553.393677 10.721548 -292.308014
v -603.393677 10.721552 -292.308014
v -553.393677 60.721550 -292.308014
v -603.393677 60.721550 -292.308014
vn -0.0000 -0.0000 -1.0000
vt 0.000000 0.000000
vt 1.000000 0.000000
vt 1.000000 1.000000
vt 0.000000 1.000000
s 0
g WallLight.007_WallLight2
usemtl WallLight2
f 89/89/23 90/90/23 92/91/23 91/92/23
g WallLight.008_Plane.025
v -247.474121 10.721548 -292.308014
v -297.474121 10.721552 -292.308014
v -247.474121 60.721550 -292.308014
v -297.474121 60.721550 -292.308014
vn -0.0000 -0.0000 -1.0000
vt 0.000000 0.000000
vt 1.000000 0.000000
vt 1.000000 1.000000
vt 0.000000 1.000000
s 0
g WallLight.008_WallLight1
usemtl WallLight1
f 93/93/24 94/94/24 96/95/24 95/96/24
g WallLight.009_Plane.026
v 21.955738 10.721548 -292.308014
v -28.044262 10.721552 -292.308014
v 21.955742 60.721550 -292.308014
v -28.044258 60.721550 -292.308014
vn -0.0000 -0.0000 -1.0000
vt 0.000000 0.000000
vt 1.000000 0.000000
vt 1.000000 1.000000
vt 0.000000 1.000000
s 0
g WallLight.009_WallLight
usemtl WallLight
f 97/97/25 98/98/25 100/99/25 99/100/25
